<svg xmlns="http://www.w3.org/2000/svg" viewBox="0 0 934 738" width="934" height="738">
	<defs>
		<linearGradient id="grd1" gradientUnits="userSpaceOnUse"  x1="478.22" y1="737.161" x2="478.22" y2="0">
			<stop offset="0" stop-color="#808080" stop-opacity="0.25" />
			<stop offset="0.535" stop-color="#808080" stop-opacity="0.12" />
			<stop offset="1" stop-color="#808080" stop-opacity="0.1" />
		</linearGradient>
		<linearGradient id="grd2" gradientUnits="userSpaceOnUse"  x1="338511.354" y1="266287.554" x2="338511.354" y2="128314.912">
			<stop offset="0" stop-color="#808080" stop-opacity="0.25" />
			<stop offset="0.535" stop-color="#808080" stop-opacity="0.12" />
			<stop offset="1" stop-color="#808080" stop-opacity="0.1" />
		</linearGradient>
	</defs>
	<style>
		tspan { white-space:pre }
		.shp0 { fill: url(#grd1) } 
		.shp1 { fill: url(#grd2) } 
		.shp2 { fill: #ff7a96 } 
		.shp3 { opacity: 0.2;fill: #000000 } 
		.shp4 { fill: #ff4040 } 
	</style>
	<path id="Layer" class="shp0" d="M552.72 430.92C520.7 365.81 546.32 309.23 591.15 269.74C653.06 240.92 713.9 253.73 758.73 311.37C787.98 294.27 825.23 290.57 855.86 297.49C879.5 208.47 857.37 101.73 778.47 44.19C675.85 -30.66 531.98 -8.14 457.13 94.48C354.51 19.63 210.64 42.15 135.79 144.77C60.94 247.39 83.46 391.26 186.08 466.11L557.71 737.16L656.26 600.63L552.72 430.92Z" />
	<path id="Layer" class="shp1" d="M760.14 320.28C744.76 293.94 719.56 274.8 690.06 267.06C660.57 259.32 629.21 263.61 602.88 279C576.56 294.38 557.42 319.6 549.69 349.09C541.96 378.59 546.27 409.95 561.66 436.27L677.65 634.75L876.13 518.76C902.45 503.37 921.58 478.17 929.32 448.68C937.05 419.19 932.76 387.84 917.38 361.52C901.99 335.2 876.79 316.07 847.3 308.33C817.81 300.6 786.46 304.89 760.14 320.28L760.14 320.28Z" />
	<path id="Layer" class="shp2" d="M759.18 323.93C744.51 298.83 720.48 280.59 692.36 273.21C664.24 265.84 634.35 269.93 609.25 284.6C584.15 299.27 565.91 323.3 558.53 351.42C551.16 379.54 555.26 409.44 569.92 434.53L680.53 623.79L869.79 513.19C894.88 498.52 913.13 474.48 920.5 446.37C927.88 418.25 923.78 388.35 909.11 363.26C894.45 338.16 870.41 319.92 842.29 312.54C814.18 305.16 784.28 309.26 759.18 323.93L759.18 323.93Z" />
	<path id="Layer" class="shp3" d="M867.79 514.19C892.84 499.55 911.07 475.56 918.47 447.5C925.87 419.44 921.83 389.58 907.25 364.49C892.67 339.4 868.73 321.11 840.68 313.65C812.64 306.18 782.78 310.14 757.65 324.66L866.62 514.87L867.79 514.19Z" />
	<path id="Layer" class="shp4" d="M848.44 292.58C840.94 290.88 833.3 289.88 825.61 289.61C817.92 289.34 810.22 289.8 802.62 290.97C795.02 292.15 787.54 294.04 780.3 296.62C773.05 299.19 766.06 302.45 759.42 306.34C742.98 278.22 716.05 257.78 684.54 249.52C653.03 241.26 619.53 245.85 591.41 262.29C563.29 278.72 542.84 305.65 534.58 337.16C526.31 368.66 530.89 402.16 547.32 430.29L644.77 597.05L554.4 720.97L368.83 585.62L384.46 576.49C415.09 558.59 437.76 529.7 447.86 495.69C457.96 461.68 454.74 425.1 438.84 393.38C422.94 361.66 395.57 337.19 362.28 324.92C328.99 312.66 292.28 313.53 259.6 327.35C258.22 327.94 256.86 328.54 255.5 329.17C254.14 329.8 252.79 330.45 251.45 331.12C250.12 331.79 248.79 332.48 247.47 333.2C246.16 333.91 244.85 334.65 243.56 335.4C236.86 323.93 228.57 313.48 218.92 304.36C209.27 295.24 198.37 287.54 186.54 281.5C174.72 275.45 162.09 271.13 149.05 268.65C136 266.18 122.67 265.57 109.45 266.86C109.67 264.09 109.94 261.32 110.26 258.56C110.58 255.8 110.95 253.05 111.38 250.3C111.8 247.55 112.28 244.81 112.81 242.08C113.34 239.36 113.92 236.64 114.55 233.93C114.83 232.73 115.13 231.52 115.43 230.31C116.63 225.56 117.99 220.84 119.51 216.14C119.63 215.78 119.74 215.41 119.87 215.05C120.56 212.97 121.29 210.89 122.04 208.82C122.9 206.46 123.81 204.1 124.76 201.76C125.23 200.59 125.71 199.42 126.21 198.26C126.69 197.13 127.18 196 127.68 194.87C127.69 194.86 127.69 194.85 127.69 194.84C127.7 194.84 127.7 194.83 127.71 194.82C127.71 194.81 127.71 194.8 127.72 194.79C127.72 194.79 127.73 194.78 127.73 194.77C128.24 193.61 128.77 192.46 129.31 191.31C129.37 191.17 129.43 191.03 129.5 190.9C129.98 189.88 130.46 188.87 130.96 187.86C131.52 186.71 132.09 185.57 132.67 184.43C133.9 182 135.19 179.6 136.53 177.2C137.01 176.32 137.51 175.45 138.02 174.58C138.62 173.53 139.23 172.48 139.86 171.44C140.15 170.96 140.44 170.47 140.74 169.99C142.37 167.3 144.07 164.64 145.84 162C146.25 161.38 146.67 160.76 147.1 160.14C147.68 159.29 148.27 158.44 148.86 157.6C149.57 156.6 150.28 155.6 151.01 154.6C222.57 56.49 360.12 34.96 458.23 106.52C529.79 8.41 667.34 -13.12 765.46 58.44C783.27 71.43 799.02 87.02 812.19 104.69C825.36 122.36 835.81 141.9 843.17 162.68C850.53 183.45 854.73 205.21 855.62 227.23C856.52 249.25 854.1 271.28 848.44 292.58L848.44 292.58Z" />
	<path id="Layer" class="shp2" d="M230.73 355.21C214.15 326.88 187 306.28 155.25 297.96C123.49 289.64 89.73 294.27 61.39 310.83C33.05 327.4 12.44 354.54 4.11 386.29C-4.23 418.04 0.39 451.8 16.94 480.15L141.88 693.95L355.67 569C384.01 552.43 404.6 525.28 412.93 493.52C421.25 461.77 416.62 428.01 400.05 399.66C383.49 371.32 356.35 350.71 324.6 342.38C292.84 334.04 259.08 338.66 230.73 355.21L230.73 355.21Z" />
	<path id="Layer" class="shp3" d="M458.6 106.58L259.6 327.35C258.22 327.94 256.86 328.54 255.5 329.17C254.14 329.8 252.79 330.45 251.45 331.12C250.12 331.79 248.79 332.48 247.47 333.2C246.16 333.91 244.85 334.65 243.56 335.4C236.86 323.93 228.57 313.48 218.92 304.36C209.27 295.24 198.37 287.54 186.54 281.5C174.72 275.45 162.09 271.13 149.05 268.65C136 266.18 122.67 265.57 109.45 266.86C109.67 264.09 109.94 261.32 110.26 258.56C110.58 255.8 110.95 253.05 111.38 250.3C111.8 247.55 112.28 244.81 112.81 242.08C113.34 239.36 113.92 236.64 114.55 233.93C114.83 232.73 115.13 231.52 115.43 230.31C116.62 225.56 117.98 220.84 119.51 216.14C119.63 215.78 119.74 215.41 119.87 215.05C120.56 212.97 121.29 210.89 122.04 208.82C122.9 206.46 123.8 204.1 124.76 201.76C125.23 200.59 125.71 199.42 126.21 198.26C126.69 197.13 127.18 196 127.68 194.87C127.69 194.86 127.69 194.85 127.69 194.84C127.7 194.84 127.7 194.83 127.71 194.82C127.71 194.81 127.71 194.8 127.72 194.79C127.72 194.79 127.73 194.78 127.73 194.77C128.24 193.61 128.77 192.46 129.31 191.31C129.37 191.17 129.43 191.03 129.5 190.9C129.98 189.88 130.46 188.87 130.96 187.86C131.52 186.71 132.09 185.57 132.67 184.43C133.9 182 135.19 179.6 136.53 177.2C137.01 176.32 137.51 175.45 138.02 174.58C138.62 173.53 139.23 172.48 139.86 171.44C140.15 170.96 140.44 170.47 140.74 169.99C142.37 167.3 144.07 164.64 145.84 162C146.25 161.38 146.67 160.76 147.1 160.14C147.68 159.29 148.27 158.44 148.86 157.6C149.57 156.6 150.28 155.6 151.01 154.6C222.57 56.49 360.12 34.96 458.23 106.52C458.33 106.4 458.42 106.27 458.52 106.15L458.6 106.58Z" />
</svg>