<svg xmlns="http://www.w3.org/2000/svg" viewBox="0 0 934 738" width="934" height="738">
	<style>
		tspan { white-space:pre }
		.shp0 { fill: #ffffff } 
	</style>
	<path id="Layer" class="shp0" d="M833.87 239.48C827.7 228.19 817.62 219.93 805.86 216.6C794.04 213.3 781.53 215.13 771.01 221.76C760.48 228.39 752.82 239.22 749.73 251.92C746.63 264.61 748.36 278.1 754.5 289.42L800.88 374.87L880.24 324.94C890.77 318.31 898.4 307.47 901.5 294.76C904.59 282.09 902.86 268.58 896.7 257.25C890.56 245.93 880.5 237.7 868.71 234.38C856.93 231.02 844.39 232.88 833.87 239.48L833.87 239.48Z" />
	<path id="Bae " fill-rule="evenodd" class="shp0" d="M127.9 521.02C97.21 521.02 66.52 519.88 35.84 517.61L33.7 475.85L64.81 467.32L64.81 304.95C64.81 297.57 64.24 292.74 63.11 290.45C61.97 287.91 58.99 285.64 54.16 283.64L32 271.29L34.55 235.92C80.59 229.96 120.08 226.97 153.05 226.97C193.39 226.97 222.93 232.93 241.67 244.85C260.44 256.78 269.82 275.68 269.82 301.54C269.82 314.32 267.82 325.68 263.83 335.64C259.86 345.3 253.75 354.11 245.52 362.05C273.93 374.85 288.13 395.58 288.13 424.27C288.13 449.85 281.03 470.45 266.82 486.07C252.62 501.7 231.74 511.93 204.17 516.76C193.94 519.6 168.52 521.02 127.9 521.02ZM190.55 348.41C193.39 341.03 194.81 328.68 194.81 311.34C194.81 299.41 191.96 290.61 186.27 284.93C180.87 279.24 172.49 276.11 161.12 275.54C153.75 275.54 146.36 275.83 138.97 276.39L138.97 347.56C143.8 347.28 150.05 347.14 157.72 347.14C169.38 347.14 180.32 347.57 190.55 348.41ZM172.65 468.17C188.83 468.17 200.34 466.75 207.16 463.91C210 452.55 211.42 442.46 211.42 433.66C211.42 419.45 207.73 409.37 200.35 403.4C192.96 397.43 180.46 394.45 162.85 394.45C159.15 394.45 154.46 394.73 148.77 395.3L138.97 395.71L138.97 465.2C148.92 467.18 160.15 468.17 172.65 468.17ZM375.93 524.86C356.6 524.86 341.12 519.6 329.48 509.08C317.82 498.29 311.99 484.52 311.99 467.75C311.99 445.3 323.22 427.68 345.67 414.9C368.41 402.11 401.36 394.86 444.54 393.16C444.54 379.82 443.41 370.01 441.14 363.76C439.14 357.22 435.31 352.82 429.63 350.55C424.23 347.99 415.85 346.71 404.48 346.71C392.82 346.71 384.59 347.14 379.77 348L362.29 382.51L330.74 380.39C325.92 357.66 322.52 334.08 320.53 309.64C336.43 304.24 353.76 299.98 372.53 296.85C391.56 293.72 409.32 292.15 425.79 292.15C455.9 292.15 477.49 298.12 490.56 310.05C503.62 321.71 510.16 341.18 510.16 368.45L510.16 457.51C510.16 462.64 510.59 466.19 511.45 468.17C512.58 470.16 514.85 472.16 518.26 474.15L535.31 483.95L533.61 510.37C500.66 518.03 474.67 522.3 455.63 523.16C455.06 521.46 454.2 518.47 453.05 514.21C451.92 509.65 450.93 505.39 450.09 501.42C438.99 508.52 426.78 514.2 413.43 518.46C400.36 522.73 387.86 524.86 375.93 524.86ZM404.48 476.71C415.85 476.71 429.63 472.87 445.83 465.2L444.1 432.8C437.29 432.24 432.75 431.95 430.48 431.95C422.81 431.95 413.86 432.8 403.63 434.51C393.4 435.93 385.3 437.64 379.33 439.61C378.47 443.31 378.04 446.72 378.04 449.85C378.04 458.38 380.32 465.06 384.88 469.87C389.71 474.43 396.25 476.71 404.48 476.71ZM652.07 524.42C618.84 524.42 593.13 514.34 574.95 494.17C557.05 474 548.1 446.16 548.1 410.65C548.1 385.92 552.5 364.75 561.31 347.14C570.11 329.24 582.61 315.61 598.81 306.24C615.01 296.85 633.91 292.15 655.51 292.15C687.61 292.15 712.18 302.38 729.22 322.85C746.56 343.31 754.79 372.43 753.93 410.21L624.37 434.07C628.36 446 633.91 454.82 641.01 460.51C648.39 465.91 658.04 468.61 669.98 468.61C678.23 468.61 688.03 467.47 699.38 465.2C710.75 462.64 722.26 459.23 733.92 454.96L743.72 497.16C733.2 505.1 719.56 511.64 702.81 516.76C686.04 521.87 669.13 524.42 652.07 524.42ZM620.12 391.9L684.06 374.41C683.49 363.61 680.36 355.8 674.67 350.99C669.27 345.86 661.6 343.3 651.66 343.3C643.43 343.3 635.61 344.44 628.22 346.71C622.25 360.63 619.55 375.7 620.12 391.9Z" />
</svg>